<?xml version="1.0" encoding="UTF-8" standalone="no"?><!DOCTYPE svg PUBLIC "-//W3C//DTD SVG 1.1//EN" "http://www.w3.org/Graphics/SVG/1.1/DTD/svg11.dtd"><svg width="100%" height="100%" viewBox="0 0 2001 278" version="1.1" xmlns="http://www.w3.org/2000/svg" xmlns:xlink="http://www.w3.org/1999/xlink" xml:space="preserve" xmlns:serif="http://www.serif.com/" style="fill-rule:evenodd;clip-rule:evenodd;stroke-linejoin:round;stroke-miterlimit:2;"><rect id="mpowr-logo-links-farbig" x="0.631" y="0.685" width="2000" height="277.311" style="fill:none;"/><clipPath id="_clip1"><rect id="mpowr-logo-links-farbig1" serif:id="mpowr-logo-links-farbig" x="0.631" y="0.685" width="2000" height="277.311"/></clipPath><g clip-path="url(#_clip1)"><path d="M12.937,124.783l72.487,-2.604l120.151,-21.56l42.171,-39.431l-4.003,25.119l-28.212,40.132l-65.708,40.077l-119.618,29.186l-17.855,1.945l0.587,-72.864Z" style="fill:#ffb290;"/><path d="M237.244,167.96l-61.962,69.638l-95.523,22.9l-60.069,-14.531l-7.34,-41.248l49.576,-13.489l98.734,-30.324l68.469,-49.743l18.617,-31.129l-10.502,87.926Z" style="fill:#ff6521;"/><g><path d="M0.631,48.449c0,-24.361 19.778,-44.139 44.139,-44.139l220.695,-0l-0,220.694c-0,24.361 -19.778,44.139 -44.139,44.139l-176.556,-0c-24.361,-0 -44.139,-19.778 -44.139,-44.139l0,-176.555Zm238.35,-6.621l0,-11.035l-194.211,-0c-9.744,-0 -17.655,7.911 -17.655,17.656l-0,66.208c-0,-0 211.297,14.414 211.866,-69.938l0,-0.684c-0.005,-0.746 -0.009,-1.481 -0.014,-2.207l0.014,-0Zm-211.866,163.047l-0,6.887c-0,17.053 13.844,30.898 30.897,30.898l30.942,-0c80.418,-0 146.148,-63.391 149.903,-142.887c-46.53,93.185 -211.742,105.102 -211.742,105.102Zm-0,-72.563l-0,48.553c-0,0 180.263,-8.945 211.866,-104.48l0,-1.279c-30.758,58.349 -211.866,57.206 -211.866,57.206Z" style="fill:#101010;"/><g><path d="M354.211,268.731c-2.619,-0 -4.823,-0.857 -6.613,-2.572c-1.789,-1.715 -2.684,-3.881 -2.684,-6.501l0,-245.901c0,-2.769 0.895,-5.011 2.684,-6.725c1.79,-1.715 3.994,-2.572 6.613,-2.572l29.837,-0c3.539,-0 6.194,0.936 7.963,2.808c1.77,1.872 2.883,3.287 3.339,4.247l73.123,135.887l73.347,-135.887c0.606,-0.96 1.756,-2.375 3.451,-4.247c1.695,-1.872 4.312,-2.808 7.851,-2.808l29.613,-0c2.768,-0 5.01,0.857 6.725,2.572c1.714,1.714 2.571,3.956 2.571,6.725l0,245.901c0,2.62 -0.857,4.786 -2.571,6.501c-1.715,1.715 -3.957,2.572 -6.725,2.572l-31.795,-0c-2.619,-0 -4.786,-0.857 -6.501,-2.572c-1.715,-1.715 -2.572,-3.881 -2.572,-6.501l0,-163.517l-52.937,100.847c-1.109,2.313 -2.658,4.277 -4.648,5.893c-1.99,1.617 -4.648,2.425 -7.975,2.425l-15.668,-0c-3.327,-0 -5.948,-0.808 -7.863,-2.425c-1.915,-1.616 -3.502,-3.58 -4.76,-5.893l-52.937,-100.847l-0,163.517c-0,2.62 -0.858,4.786 -2.572,6.501c-1.715,1.715 -3.882,2.572 -6.501,2.572l-31.795,-0Z" style="fill:#101010;"/><path d="M648.46,268.731c-2.619,-0 -4.786,-0.857 -6.5,-2.572c-1.715,-1.715 -2.572,-3.881 -2.572,-6.501l-0,-245.901c-0,-2.769 0.857,-5.011 2.572,-6.725c1.714,-1.715 3.881,-2.572 6.5,-2.572l100.942,-0c19.766,-0 36.947,3.111 51.545,9.332c14.598,6.221 25.944,15.555 34.037,28.002c8.093,12.447 12.14,27.994 12.14,46.643c-0,18.648 -4.047,34.093 -12.14,46.336c-8.093,12.242 -19.439,21.371 -34.037,27.388c-14.598,6.017 -31.779,9.026 -51.545,9.026l-56.016,-0l0,88.471c0,2.62 -0.857,4.786 -2.571,6.501c-1.715,1.715 -3.957,2.572 -6.725,2.572l-35.63,-0Zm44.16,-139.368l54.895,0c14.637,0 25.898,-3.478 33.783,-10.435c7.885,-6.957 11.827,-17.223 11.827,-30.798c0,-12.553 -3.661,-22.64 -10.984,-30.261c-7.322,-7.622 -18.864,-11.432 -34.626,-11.432l-54.895,-0l-0,82.926Z" style="fill:#101010;"/><path d="M978.068,272.506c-22.424,0 -41.727,-3.738 -57.91,-11.214c-16.183,-7.475 -28.763,-18.902 -37.741,-34.278c-8.978,-15.377 -13.896,-34.639 -14.753,-57.786c-0.252,-10.917 -0.378,-21.641 -0.378,-32.172c0,-10.532 0.126,-21.358 0.378,-32.48c0.857,-22.895 5.899,-42.057 15.125,-57.485c9.225,-15.427 21.993,-27.019 38.301,-34.774c16.309,-7.755 35.301,-11.632 56.978,-11.632c21.676,-0 40.669,3.877 56.977,11.632c16.309,7.755 29.139,19.347 38.491,34.774c9.351,15.428 14.33,34.59 14.936,57.485c0.503,11.122 0.755,21.948 0.755,32.48c-0,10.531 -0.252,21.255 -0.755,32.172c-0.708,23.147 -5.589,42.409 -14.641,57.786c-9.053,15.376 -21.671,26.803 -37.854,34.278c-16.182,7.476 -35.486,11.214 -57.909,11.214Zm-0,-43.357c16.226,0 29.508,-4.882 39.847,-14.647c10.339,-9.764 15.858,-25.536 16.558,-47.315c0.503,-11.121 0.755,-21.37 0.755,-30.745c0,-9.375 -0.252,-19.521 -0.755,-30.438c-0.401,-14.519 -3.067,-26.361 -7.999,-35.524c-4.931,-9.162 -11.54,-15.86 -19.826,-20.091c-8.286,-4.232 -17.813,-6.347 -28.58,-6.347c-10.516,-0 -19.943,2.115 -28.28,6.347c-8.337,4.231 -14.971,10.929 -19.903,20.091c-4.931,9.163 -7.672,21.005 -8.223,35.524c-0.251,10.917 -0.377,21.063 -0.377,30.438c-0,9.375 0.126,19.624 0.377,30.745c0.803,21.779 6.385,37.551 16.747,47.315c10.363,9.765 23.582,14.647 39.659,14.647Z" style="fill:#101010;"/><path d="M1174.09,268.731c-3.838,-0 -6.856,-1.05 -9.054,-3.15c-2.199,-2.1 -3.624,-4.786 -4.277,-8.058l-44.82,-242.056c-0.15,-0.7 -0.262,-1.337 -0.336,-1.911c-0.075,-0.574 -0.112,-0.987 -0.112,-1.239c-0,-2.115 0.78,-3.954 2.341,-5.515c1.562,-1.561 3.4,-2.342 5.516,-2.342l33.234,-0c6.214,-0 9.698,2.501 10.453,7.503l31.441,171.021l34.084,-110.403c0.653,-2.061 1.898,-4.177 3.734,-6.348c1.837,-2.171 4.647,-3.256 8.43,-3.256l20.575,0c3.933,0 6.78,1.085 8.542,3.256c1.762,2.171 2.969,4.287 3.622,6.348l34.084,110.25l31.441,-170.868c0.755,-5.002 4.239,-7.503 10.453,-7.503l33.234,-0c2.116,-0 3.954,0.781 5.516,2.342c1.561,1.561 2.341,3.4 2.341,5.515c0,0.252 -0.037,0.665 -0.112,1.239c-0.074,0.574 -0.186,1.211 -0.336,1.911l-44.82,242.056c-0.55,3.272 -1.95,5.958 -4.2,8.058c-2.249,2.1 -5.293,3.15 -9.131,3.15l-25.295,-0c-3.838,-0 -6.803,-0.985 -8.895,-2.955c-2.092,-1.971 -3.54,-4.159 -4.342,-6.566l-42.389,-126.036l-42.39,126.036c-0.802,2.407 -2.249,4.595 -4.342,6.566c-2.092,1.97 -5.057,2.955 -8.895,2.955l-25.295,-0Z" style="fill:#101010;"/><path d="M1444.67,268.731c-2.619,-0 -4.786,-0.857 -6.5,-2.572c-1.715,-1.715 -2.572,-3.881 -2.572,-6.501l-0,-245.901c-0,-2.769 0.857,-5.011 2.572,-6.725c1.714,-1.715 3.881,-2.572 6.5,-2.572l97.627,-0c30.415,-0 54.433,7.059 72.055,21.177c17.622,14.118 26.433,34.575 26.433,61.372c0,18.806 -4.548,34.326 -13.644,46.56c-9.096,12.235 -21.352,21.156 -36.768,26.764l54.954,96.388c0.755,1.51 1.133,2.894 1.133,4.153c-0,2.115 -0.781,3.954 -2.342,5.515c-1.561,1.561 -3.4,2.342 -5.515,2.342l-34.131,-0c-4.436,-0 -7.763,-1.146 -9.981,-3.439c-2.218,-2.293 -3.929,-4.544 -5.132,-6.754l-48.832,-89.593l-52.464,0l-0,90.713c-0,2.62 -0.858,4.786 -2.572,6.501c-1.715,1.715 -3.957,2.572 -6.725,2.572l-34.096,-0Zm43.393,-142.376l53.113,-0c15.353,-0 26.793,-3.445 34.32,-10.335c7.527,-6.89 11.291,-16.662 11.291,-29.318c-0,-12.655 -3.713,-22.529 -11.138,-29.624c-7.424,-7.094 -18.915,-10.641 -34.473,-10.641l-53.113,-0l-0,79.918Z" style="fill:#101010;"/><path d="M1730.63,268.731c-2.565,-0 -4.649,-0.802 -6.253,-2.407c-1.605,-1.604 -2.407,-3.689 -2.407,-6.253l-0,-246.951c-0,-2.565 0.802,-4.649 2.407,-6.253c1.604,-1.605 3.688,-2.407 6.253,-2.407l20.262,-0c2.564,-0 4.649,0.802 6.253,2.407c1.605,1.604 2.407,3.688 2.407,6.253l-0,246.951c-0,2.564 -0.802,4.649 -2.407,6.253c-1.604,1.605 -3.689,2.407 -6.253,2.407l-20.262,-0Z" style="fill:#101010;"/><path d="M1890.84,268.731c-2.564,-0 -4.648,-0.802 -6.253,-2.407c-1.604,-1.604 -2.407,-3.689 -2.407,-6.253l0,-221.993l-72.486,-0c-2.564,-0 -4.648,-0.802 -6.252,-2.407c-1.605,-1.604 -2.407,-3.689 -2.407,-6.253l-0,-15.992c-0,-2.768 0.802,-4.955 2.407,-6.559c1.604,-1.605 3.688,-2.407 6.252,-2.407l181.97,-0c2.769,-0 4.955,0.802 6.56,2.407c1.604,1.604 2.406,3.791 2.406,6.559l0,15.992c0,2.564 -0.802,4.649 -2.406,6.253c-1.605,1.605 -3.791,2.407 -6.56,2.407l-72.185,-0l0,221.993c0,2.564 -0.802,4.649 -2.407,6.253c-1.604,1.605 -3.791,2.407 -6.559,2.407l-19.673,-0Z" style="fill:#101010;"/></g></g></g></svg>