<?xml version="1.0" encoding="UTF-8" standalone="no"?>
<!DOCTYPE svg PUBLIC "-//W3C//DTD SVG 1.1//EN" "http://www.w3.org/Graphics/SVG/1.1/DTD/svg11.dtd">
<svg width="100%" height="100%" viewBox="0 0 512 512" version="1.1" xmlns="http://www.w3.org/2000/svg" xmlns:xlink="http://www.w3.org/1999/xlink" xml:space="preserve" xmlns:serif="http://www.serif.com/" style="fill-rule:evenodd;clip-rule:evenodd;stroke-linejoin:round;stroke-miterlimit:2;">
    <g transform="matrix(1.14792,0,0,1.14683,-27.1744,-0.732479)">
        <g transform="matrix(1,0,0,1,-28.0129,-0.167239)">
            <circle cx="274.698" cy="155.149" r="121.637" style="fill:rgb(154,188,167);fill-opacity:0.5;"/>
        </g>
        <g transform="matrix(1,0,0,1,-96.8935,137.594)">
            <circle cx="274.698" cy="155.149" r="121.637" style="fill:rgb(255,178,144);fill-opacity:0.5;"/>
        </g>
        <g transform="matrix(1,0,0,1,40.8677,137.594)">
            <circle cx="274.698" cy="155.149" r="121.637" style="fill:rgb(154,180,188);fill-opacity:0.5;"/>
        </g>
        <g transform="matrix(0.871143,0,0,0.871969,22.9465,-5.26106)">
            <g transform="matrix(24,0,0,24,225.886,141.689)">
                <path d="M0.269,-0C0.262,-0 0.257,-0.002 0.253,-0.006C0.249,-0.01 0.247,-0.015 0.247,-0.022L0.247,-0.64L0.049,-0.64C0.042,-0.64 0.037,-0.642 0.033,-0.646C0.029,-0.65 0.027,-0.655 0.027,-0.662L0.027,-0.677C0.027,-0.684 0.029,-0.69 0.033,-0.694C0.037,-0.698 0.042,-0.7 0.049,-0.7L0.507,-0.7C0.514,-0.7 0.52,-0.698 0.524,-0.694C0.528,-0.69 0.53,-0.684 0.53,-0.677L0.53,-0.662C0.53,-0.655 0.528,-0.65 0.524,-0.646C0.52,-0.642 0.514,-0.64 0.507,-0.64L0.31,-0.64L0.31,-0.022C0.31,-0.015 0.308,-0.01 0.304,-0.006C0.3,-0.002 0.294,-0 0.287,-0L0.269,-0Z" style="fill-rule:nonzero;"/>
            </g>
            <g transform="matrix(24,0,0,24,239.254,141.689)">
                <path d="M0.116,-0C0.109,-0 0.104,-0.002 0.1,-0.006C0.096,-0.01 0.094,-0.015 0.094,-0.022L0.094,-0.677C0.094,-0.684 0.096,-0.69 0.1,-0.694C0.104,-0.698 0.109,-0.7 0.116,-0.7L0.506,-0.7C0.513,-0.7 0.519,-0.698 0.523,-0.694C0.527,-0.69 0.529,-0.684 0.529,-0.677L0.529,-0.662C0.529,-0.655 0.527,-0.65 0.523,-0.646C0.519,-0.642 0.513,-0.64 0.506,-0.64L0.157,-0.64L0.157,-0.385L0.484,-0.385C0.491,-0.385 0.497,-0.383 0.501,-0.379C0.505,-0.375 0.507,-0.369 0.507,-0.362L0.507,-0.347C0.507,-0.34 0.505,-0.335 0.501,-0.331C0.497,-0.327 0.491,-0.325 0.484,-0.325L0.157,-0.325L0.157,-0.06L0.514,-0.06C0.521,-0.06 0.527,-0.058 0.531,-0.054C0.535,-0.05 0.537,-0.044 0.537,-0.037L0.537,-0.022C0.537,-0.015 0.535,-0.01 0.531,-0.006C0.527,-0.002 0.521,-0 0.514,-0L0.116,-0Z" style="fill-rule:nonzero;"/>
            </g>
            <g transform="matrix(24,0,0,24,253.462,141.689)">
                <path d="M0.044,-0C0.039,-0 0.034,-0.002 0.03,-0.006C0.026,-0.01 0.024,-0.015 0.024,-0.02C0.024,-0.023 0.025,-0.027 0.026,-0.031L0.279,-0.68C0.282,-0.687 0.285,-0.692 0.29,-0.695C0.294,-0.698 0.3,-0.7 0.308,-0.7L0.342,-0.7C0.35,-0.7 0.356,-0.698 0.361,-0.695C0.365,-0.692 0.368,-0.687 0.371,-0.68L0.624,-0.031C0.625,-0.027 0.626,-0.023 0.626,-0.02C0.626,-0.015 0.624,-0.01 0.62,-0.006C0.616,-0.002 0.611,-0 0.606,-0L0.586,-0C0.579,-0 0.574,-0.002 0.571,-0.006C0.568,-0.009 0.565,-0.012 0.564,-0.015L0.502,-0.175L0.148,-0.175L0.086,-0.015C0.085,-0.012 0.083,-0.009 0.08,-0.006C0.076,-0.002 0.071,-0 0.064,-0L0.044,-0ZM0.172,-0.235L0.478,-0.235L0.325,-0.629L0.172,-0.235Z" style="fill-rule:nonzero;"/>
            </g>
            <g transform="matrix(24,0,0,24,269.062,141.689)">
                <path d="M0.117,-0C0.11,-0 0.105,-0.002 0.101,-0.006C0.096,-0.01 0.094,-0.015 0.094,-0.022L0.094,-0.677C0.094,-0.684 0.096,-0.69 0.101,-0.694C0.105,-0.698 0.11,-0.7 0.117,-0.7L0.142,-0.7C0.149,-0.7 0.154,-0.698 0.157,-0.695C0.16,-0.692 0.162,-0.689 0.163,-0.687L0.39,-0.245L0.618,-0.687C0.619,-0.689 0.622,-0.692 0.625,-0.695C0.628,-0.698 0.632,-0.7 0.639,-0.7L0.663,-0.7C0.67,-0.7 0.676,-0.698 0.68,-0.694C0.684,-0.69 0.686,-0.684 0.686,-0.677L0.686,-0.022C0.686,-0.015 0.684,-0.01 0.68,-0.006C0.676,-0.002 0.67,-0 0.663,-0L0.645,-0C0.638,-0 0.633,-0.002 0.629,-0.006C0.625,-0.01 0.623,-0.015 0.623,-0.022L0.623,-0.564L0.432,-0.188C0.429,-0.181 0.426,-0.176 0.421,-0.173C0.416,-0.17 0.409,-0.168 0.401,-0.168L0.379,-0.168C0.371,-0.168 0.365,-0.17 0.36,-0.173C0.355,-0.176 0.351,-0.181 0.348,-0.188L0.157,-0.564L0.157,-0.022C0.157,-0.015 0.155,-0.01 0.151,-0.006C0.147,-0.002 0.142,-0 0.135,-0L0.117,-0Z" style="fill-rule:nonzero;"/>
            </g>
        </g>
        <g transform="matrix(0.871143,0,0,0.871969,-117.566,176.624)">
            <g transform="matrix(24,0,0,24,223.057,141.689)">
                <path d="M0.116,-0C0.109,-0 0.104,-0.002 0.1,-0.006C0.096,-0.01 0.094,-0.015 0.094,-0.022L0.094,-0.677C0.094,-0.684 0.096,-0.69 0.1,-0.694C0.104,-0.698 0.109,-0.7 0.116,-0.7L0.359,-0.7C0.406,-0.7 0.446,-0.692 0.481,-0.677C0.515,-0.661 0.542,-0.638 0.561,-0.607C0.58,-0.576 0.589,-0.538 0.589,-0.493C0.589,-0.448 0.58,-0.41 0.561,-0.379C0.542,-0.348 0.515,-0.325 0.481,-0.31C0.446,-0.294 0.406,-0.286 0.359,-0.286L0.157,-0.286L0.157,-0.022C0.157,-0.015 0.155,-0.01 0.151,-0.006C0.147,-0.002 0.141,-0 0.134,-0L0.116,-0ZM0.157,-0.346L0.354,-0.346C0.412,-0.346 0.455,-0.359 0.484,-0.384C0.512,-0.409 0.526,-0.446 0.526,-0.493C0.526,-0.54 0.512,-0.577 0.484,-0.602C0.455,-0.627 0.412,-0.64 0.354,-0.64L0.157,-0.64L0.157,-0.346Z" style="fill-rule:nonzero;"/>
            </g>
            <g transform="matrix(24,0,0,24,238.129,141.689)">
                <path d="M0.116,-0C0.109,-0 0.104,-0.002 0.1,-0.006C0.096,-0.01 0.094,-0.015 0.094,-0.022L0.094,-0.677C0.094,-0.684 0.096,-0.69 0.1,-0.694C0.104,-0.698 0.109,-0.7 0.116,-0.7L0.349,-0.7C0.419,-0.7 0.475,-0.683 0.517,-0.65C0.558,-0.617 0.579,-0.566 0.579,-0.498C0.579,-0.445 0.566,-0.402 0.539,-0.37C0.512,-0.338 0.475,-0.316 0.428,-0.305L0.589,-0.031C0.591,-0.027 0.592,-0.023 0.592,-0.02C0.592,-0.015 0.59,-0.01 0.586,-0.006C0.582,-0.002 0.577,-0 0.572,-0L0.56,-0C0.549,-0 0.541,-0.003 0.536,-0.009C0.531,-0.014 0.526,-0.02 0.522,-0.027L0.363,-0.296L0.157,-0.296L0.157,-0.022C0.157,-0.015 0.155,-0.01 0.151,-0.006C0.147,-0.002 0.141,-0 0.134,-0L0.116,-0ZM0.157,-0.356L0.344,-0.356C0.402,-0.356 0.445,-0.368 0.474,-0.392C0.502,-0.415 0.516,-0.451 0.516,-0.498C0.516,-0.545 0.502,-0.581 0.474,-0.605C0.445,-0.628 0.402,-0.64 0.344,-0.64L0.157,-0.64L0.157,-0.356Z" style="fill-rule:nonzero;"/>
            </g>
            <g transform="matrix(24,0,0,24,253.489,141.689)">
                <path d="M0.331,0.01C0.276,0.01 0.229,0 0.19,-0.02C0.151,-0.039 0.122,-0.07 0.101,-0.111C0.08,-0.152 0.069,-0.203 0.067,-0.266C0.066,-0.296 0.066,-0.324 0.066,-0.35C0.066,-0.376 0.066,-0.404 0.067,-0.434C0.069,-0.496 0.081,-0.548 0.103,-0.589C0.125,-0.63 0.156,-0.66 0.195,-0.68C0.234,-0.7 0.279,-0.71 0.331,-0.71C0.383,-0.71 0.429,-0.7 0.468,-0.68C0.507,-0.66 0.537,-0.63 0.56,-0.589C0.582,-0.548 0.594,-0.496 0.595,-0.434C0.596,-0.404 0.597,-0.376 0.597,-0.35C0.597,-0.324 0.596,-0.296 0.595,-0.266C0.594,-0.203 0.583,-0.152 0.562,-0.111C0.541,-0.07 0.511,-0.039 0.472,-0.02C0.433,0 0.386,0.01 0.331,0.01ZM0.331,-0.05C0.388,-0.05 0.436,-0.067 0.473,-0.102C0.51,-0.137 0.529,-0.193 0.532,-0.271C0.533,-0.301 0.534,-0.327 0.534,-0.35C0.534,-0.373 0.533,-0.399 0.532,-0.429C0.531,-0.481 0.521,-0.523 0.504,-0.556C0.486,-0.589 0.462,-0.612 0.433,-0.628C0.403,-0.643 0.369,-0.65 0.331,-0.65C0.294,-0.65 0.26,-0.643 0.231,-0.628C0.201,-0.612 0.177,-0.589 0.16,-0.556C0.142,-0.523 0.132,-0.481 0.13,-0.429C0.129,-0.399 0.129,-0.373 0.129,-0.35C0.129,-0.327 0.129,-0.301 0.13,-0.271C0.133,-0.193 0.153,-0.137 0.19,-0.102C0.227,-0.067 0.274,-0.05 0.331,-0.05Z" style="fill-rule:nonzero;"/>
            </g>
            <g transform="matrix(24,0,0,24,269.209,141.689)">
                <path d="M0.064,-0C0.057,-0 0.052,-0.002 0.048,-0.007C0.044,-0.011 0.042,-0.016 0.042,-0.023L0.042,-0.043C0.042,-0.053 0.044,-0.061 0.048,-0.068C0.052,-0.074 0.055,-0.078 0.057,-0.081L0.451,-0.64L0.073,-0.64C0.066,-0.64 0.061,-0.642 0.057,-0.646C0.053,-0.65 0.051,-0.655 0.051,-0.662L0.051,-0.677C0.051,-0.684 0.053,-0.69 0.057,-0.694C0.061,-0.698 0.066,-0.7 0.073,-0.7L0.504,-0.7C0.511,-0.7 0.517,-0.698 0.521,-0.694C0.525,-0.69 0.527,-0.684 0.527,-0.677L0.527,-0.657C0.527,-0.648 0.526,-0.641 0.523,-0.636C0.52,-0.631 0.517,-0.626 0.514,-0.621L0.122,-0.06L0.514,-0.06C0.521,-0.06 0.527,-0.058 0.531,-0.054C0.535,-0.05 0.537,-0.044 0.537,-0.037L0.537,-0.022C0.537,-0.015 0.535,-0.01 0.531,-0.006C0.527,-0.002 0.521,-0 0.514,-0L0.064,-0Z" style="fill-rule:nonzero;"/>
            </g>
            <g transform="matrix(24,0,0,24,283.105,141.689)">
                <path d="M0.116,-0C0.109,-0 0.104,-0.002 0.1,-0.006C0.096,-0.01 0.094,-0.015 0.094,-0.022L0.094,-0.677C0.094,-0.684 0.096,-0.69 0.1,-0.694C0.104,-0.698 0.109,-0.7 0.116,-0.7L0.506,-0.7C0.513,-0.7 0.519,-0.698 0.523,-0.694C0.527,-0.69 0.529,-0.684 0.529,-0.677L0.529,-0.662C0.529,-0.655 0.527,-0.65 0.523,-0.646C0.519,-0.642 0.513,-0.64 0.506,-0.64L0.157,-0.64L0.157,-0.385L0.484,-0.385C0.491,-0.385 0.497,-0.383 0.501,-0.379C0.505,-0.375 0.507,-0.369 0.507,-0.362L0.507,-0.347C0.507,-0.34 0.505,-0.335 0.501,-0.331C0.497,-0.327 0.491,-0.325 0.484,-0.325L0.157,-0.325L0.157,-0.06L0.514,-0.06C0.521,-0.06 0.527,-0.058 0.531,-0.054C0.535,-0.05 0.537,-0.044 0.537,-0.037L0.537,-0.022C0.537,-0.015 0.535,-0.01 0.531,-0.006C0.527,-0.002 0.521,-0 0.514,-0L0.116,-0Z" style="fill-rule:nonzero;"/>
            </g>
            <g transform="matrix(24,0,0,24,297.313,141.689)">
                <path d="M0.304,0.01C0.25,0.01 0.204,0.001 0.167,-0.016C0.129,-0.033 0.1,-0.056 0.08,-0.083C0.06,-0.11 0.049,-0.139 0.048,-0.17C0.048,-0.175 0.05,-0.18 0.054,-0.184C0.058,-0.188 0.063,-0.19 0.069,-0.19L0.089,-0.19C0.096,-0.19 0.101,-0.188 0.105,-0.184C0.108,-0.18 0.11,-0.175 0.111,-0.17C0.114,-0.151 0.122,-0.133 0.136,-0.115C0.15,-0.096 0.171,-0.081 0.198,-0.069C0.225,-0.056 0.261,-0.05 0.304,-0.05C0.369,-0.05 0.417,-0.062 0.447,-0.086C0.477,-0.109 0.492,-0.141 0.492,-0.181C0.492,-0.208 0.484,-0.229 0.469,-0.246C0.453,-0.262 0.429,-0.277 0.397,-0.29C0.365,-0.303 0.324,-0.317 0.274,-0.333C0.227,-0.348 0.188,-0.364 0.157,-0.381C0.126,-0.397 0.104,-0.417 0.09,-0.44C0.075,-0.463 0.068,-0.493 0.068,-0.53C0.068,-0.564 0.077,-0.595 0.095,-0.622C0.113,-0.649 0.139,-0.67 0.174,-0.686C0.208,-0.702 0.25,-0.71 0.299,-0.71C0.338,-0.71 0.373,-0.705 0.402,-0.694C0.431,-0.683 0.456,-0.669 0.475,-0.652C0.494,-0.634 0.509,-0.615 0.519,-0.595C0.529,-0.574 0.534,-0.554 0.535,-0.535C0.535,-0.53 0.533,-0.526 0.53,-0.522C0.527,-0.517 0.521,-0.515 0.514,-0.515L0.494,-0.515C0.491,-0.515 0.487,-0.516 0.482,-0.519C0.476,-0.522 0.473,-0.527 0.472,-0.535C0.468,-0.568 0.451,-0.596 0.42,-0.618C0.389,-0.639 0.348,-0.65 0.299,-0.65C0.25,-0.65 0.209,-0.64 0.178,-0.621C0.147,-0.602 0.131,-0.571 0.131,-0.53C0.131,-0.503 0.138,-0.482 0.152,-0.465C0.166,-0.448 0.188,-0.432 0.218,-0.42C0.248,-0.407 0.287,-0.392 0.334,-0.377C0.384,-0.361 0.425,-0.345 0.458,-0.329C0.491,-0.313 0.515,-0.294 0.531,-0.271C0.547,-0.248 0.555,-0.218 0.555,-0.181C0.555,-0.14 0.545,-0.106 0.525,-0.078C0.504,-0.049 0.475,-0.028 0.438,-0.013C0.401,0.003 0.356,0.01 0.304,0.01Z" style="fill-rule:nonzero;"/>
            </g>
            <g transform="matrix(24,0,0,24,311.833,141.689)">
                <path d="M0.304,0.01C0.25,0.01 0.204,0.001 0.167,-0.016C0.129,-0.033 0.1,-0.056 0.08,-0.083C0.06,-0.11 0.049,-0.139 0.048,-0.17C0.048,-0.175 0.05,-0.18 0.054,-0.184C0.058,-0.188 0.063,-0.19 0.069,-0.19L0.089,-0.19C0.096,-0.19 0.101,-0.188 0.105,-0.184C0.108,-0.18 0.11,-0.175 0.111,-0.17C0.114,-0.151 0.122,-0.133 0.136,-0.115C0.15,-0.096 0.171,-0.081 0.198,-0.069C0.225,-0.056 0.261,-0.05 0.304,-0.05C0.369,-0.05 0.417,-0.062 0.447,-0.086C0.477,-0.109 0.492,-0.141 0.492,-0.181C0.492,-0.208 0.484,-0.229 0.469,-0.246C0.453,-0.262 0.429,-0.277 0.397,-0.29C0.365,-0.303 0.324,-0.317 0.274,-0.333C0.227,-0.348 0.188,-0.364 0.157,-0.381C0.126,-0.397 0.104,-0.417 0.09,-0.44C0.075,-0.463 0.068,-0.493 0.068,-0.53C0.068,-0.564 0.077,-0.595 0.095,-0.622C0.113,-0.649 0.139,-0.67 0.174,-0.686C0.208,-0.702 0.25,-0.71 0.299,-0.71C0.338,-0.71 0.373,-0.705 0.402,-0.694C0.431,-0.683 0.456,-0.669 0.475,-0.652C0.494,-0.634 0.509,-0.615 0.519,-0.595C0.529,-0.574 0.534,-0.554 0.535,-0.535C0.535,-0.53 0.533,-0.526 0.53,-0.522C0.527,-0.517 0.521,-0.515 0.514,-0.515L0.494,-0.515C0.491,-0.515 0.487,-0.516 0.482,-0.519C0.476,-0.522 0.473,-0.527 0.472,-0.535C0.468,-0.568 0.451,-0.596 0.42,-0.618C0.389,-0.639 0.348,-0.65 0.299,-0.65C0.25,-0.65 0.209,-0.64 0.178,-0.621C0.147,-0.602 0.131,-0.571 0.131,-0.53C0.131,-0.503 0.138,-0.482 0.152,-0.465C0.166,-0.448 0.188,-0.432 0.218,-0.42C0.248,-0.407 0.287,-0.392 0.334,-0.377C0.384,-0.361 0.425,-0.345 0.458,-0.329C0.491,-0.313 0.515,-0.294 0.531,-0.271C0.547,-0.248 0.555,-0.218 0.555,-0.181C0.555,-0.14 0.545,-0.106 0.525,-0.078C0.504,-0.049 0.475,-0.028 0.438,-0.013C0.401,0.003 0.356,0.01 0.304,0.01Z" style="fill-rule:nonzero;"/>
            </g>
            <g transform="matrix(24,0,0,24,326.353,141.689)">
                <path d="M0.116,-0C0.109,-0 0.104,-0.002 0.1,-0.006C0.096,-0.01 0.094,-0.015 0.094,-0.022L0.094,-0.677C0.094,-0.684 0.096,-0.69 0.1,-0.694C0.104,-0.698 0.109,-0.7 0.116,-0.7L0.506,-0.7C0.513,-0.7 0.519,-0.698 0.523,-0.694C0.527,-0.69 0.529,-0.684 0.529,-0.677L0.529,-0.662C0.529,-0.655 0.527,-0.65 0.523,-0.646C0.519,-0.642 0.513,-0.64 0.506,-0.64L0.157,-0.64L0.157,-0.385L0.484,-0.385C0.491,-0.385 0.497,-0.383 0.501,-0.379C0.505,-0.375 0.507,-0.369 0.507,-0.362L0.507,-0.347C0.507,-0.34 0.505,-0.335 0.501,-0.331C0.497,-0.327 0.491,-0.325 0.484,-0.325L0.157,-0.325L0.157,-0.06L0.514,-0.06C0.521,-0.06 0.527,-0.058 0.531,-0.054C0.535,-0.05 0.537,-0.044 0.537,-0.037L0.537,-0.022C0.537,-0.015 0.535,-0.01 0.531,-0.006C0.527,-0.002 0.521,-0 0.514,-0L0.116,-0Z" style="fill-rule:nonzero;"/>
            </g>
        </g>
        <g transform="matrix(0.871143,0,0,0.871969,72.9517,176.624)">
            <g transform="matrix(24,0,0,24,222.033,141.689)">
                <path d="M0.269,-0C0.262,-0 0.257,-0.002 0.253,-0.006C0.249,-0.01 0.247,-0.015 0.247,-0.022L0.247,-0.64L0.049,-0.64C0.042,-0.64 0.037,-0.642 0.033,-0.646C0.029,-0.65 0.027,-0.655 0.027,-0.662L0.027,-0.677C0.027,-0.684 0.029,-0.69 0.033,-0.694C0.037,-0.698 0.042,-0.7 0.049,-0.7L0.507,-0.7C0.514,-0.7 0.52,-0.698 0.524,-0.694C0.528,-0.69 0.53,-0.684 0.53,-0.677L0.53,-0.662C0.53,-0.655 0.528,-0.65 0.524,-0.646C0.52,-0.642 0.514,-0.64 0.507,-0.64L0.31,-0.64L0.31,-0.022C0.31,-0.015 0.308,-0.01 0.304,-0.006C0.3,-0.002 0.294,-0 0.287,-0L0.269,-0Z" style="fill-rule:nonzero;"/>
            </g>
            <g transform="matrix(24,0,0,24,235.401,141.689)">
                <path d="M0.116,-0C0.109,-0 0.104,-0.002 0.1,-0.006C0.096,-0.01 0.094,-0.015 0.094,-0.022L0.094,-0.677C0.094,-0.684 0.096,-0.69 0.1,-0.694C0.104,-0.698 0.109,-0.7 0.116,-0.7L0.506,-0.7C0.513,-0.7 0.519,-0.698 0.523,-0.694C0.527,-0.69 0.529,-0.684 0.529,-0.677L0.529,-0.662C0.529,-0.655 0.527,-0.65 0.523,-0.646C0.519,-0.642 0.513,-0.64 0.506,-0.64L0.157,-0.64L0.157,-0.385L0.484,-0.385C0.491,-0.385 0.497,-0.383 0.501,-0.379C0.505,-0.375 0.507,-0.369 0.507,-0.362L0.507,-0.347C0.507,-0.34 0.505,-0.335 0.501,-0.331C0.497,-0.327 0.491,-0.325 0.484,-0.325L0.157,-0.325L0.157,-0.06L0.514,-0.06C0.521,-0.06 0.527,-0.058 0.531,-0.054C0.535,-0.05 0.537,-0.044 0.537,-0.037L0.537,-0.022C0.537,-0.015 0.535,-0.01 0.531,-0.006C0.527,-0.002 0.521,-0 0.514,-0L0.116,-0Z" style="fill-rule:nonzero;"/>
            </g>
            <g transform="matrix(24,0,0,24,249.441,141.689)">
                <path d="M0.331,0.01C0.27,0.01 0.221,-0.002 0.183,-0.026C0.144,-0.049 0.116,-0.081 0.097,-0.122C0.078,-0.163 0.068,-0.209 0.066,-0.261C0.065,-0.288 0.065,-0.318 0.065,-0.349C0.065,-0.38 0.065,-0.41 0.066,-0.439C0.068,-0.491 0.078,-0.538 0.097,-0.579C0.116,-0.62 0.144,-0.652 0.183,-0.675C0.221,-0.698 0.27,-0.71 0.331,-0.71C0.378,-0.71 0.419,-0.703 0.452,-0.69C0.485,-0.677 0.513,-0.659 0.534,-0.638C0.555,-0.616 0.57,-0.592 0.581,-0.568C0.591,-0.543 0.597,-0.518 0.598,-0.494C0.599,-0.488 0.597,-0.483 0.593,-0.48C0.588,-0.476 0.583,-0.474 0.577,-0.474L0.557,-0.474C0.552,-0.474 0.547,-0.476 0.543,-0.479C0.539,-0.482 0.536,-0.487 0.535,-0.495C0.522,-0.554 0.499,-0.595 0.464,-0.617C0.429,-0.639 0.384,-0.65 0.331,-0.65C0.27,-0.65 0.222,-0.633 0.187,-0.599C0.151,-0.564 0.132,-0.509 0.129,-0.434C0.127,-0.379 0.127,-0.323 0.129,-0.266C0.132,-0.191 0.151,-0.136 0.187,-0.102C0.222,-0.067 0.27,-0.05 0.331,-0.05C0.384,-0.05 0.429,-0.061 0.464,-0.083C0.499,-0.105 0.522,-0.146 0.535,-0.205C0.536,-0.213 0.539,-0.219 0.543,-0.222C0.547,-0.225 0.552,-0.226 0.557,-0.226L0.577,-0.226C0.583,-0.226 0.588,-0.224 0.593,-0.221C0.597,-0.217 0.599,-0.212 0.598,-0.206C0.597,-0.182 0.591,-0.158 0.581,-0.133C0.57,-0.108 0.555,-0.084 0.534,-0.063C0.513,-0.041 0.485,-0.023 0.452,-0.01C0.419,0.003 0.378,0.01 0.331,0.01Z" style="fill-rule:nonzero;"/>
            </g>
            <g transform="matrix(24,0,0,24,265.065,141.689)">
                <path d="M0.116,-0C0.109,-0 0.104,-0.002 0.1,-0.006C0.096,-0.01 0.094,-0.015 0.094,-0.022L0.094,-0.677C0.094,-0.684 0.096,-0.69 0.1,-0.694C0.104,-0.698 0.109,-0.7 0.116,-0.7L0.134,-0.7C0.141,-0.7 0.147,-0.698 0.151,-0.694C0.155,-0.69 0.157,-0.684 0.157,-0.677L0.157,-0.385L0.543,-0.385L0.543,-0.677C0.543,-0.684 0.545,-0.69 0.549,-0.694C0.553,-0.698 0.558,-0.7 0.565,-0.7L0.583,-0.7C0.59,-0.7 0.596,-0.698 0.6,-0.694C0.604,-0.69 0.606,-0.684 0.606,-0.677L0.606,-0.022C0.606,-0.015 0.604,-0.01 0.6,-0.006C0.596,-0.002 0.59,-0 0.583,-0L0.565,-0C0.558,-0 0.553,-0.002 0.549,-0.006C0.545,-0.01 0.543,-0.015 0.543,-0.022L0.543,-0.325L0.157,-0.325L0.157,-0.022C0.157,-0.015 0.155,-0.01 0.151,-0.006C0.147,-0.002 0.141,-0 0.134,-0L0.116,-0Z" style="fill-rule:nonzero;"/>
            </g>
            <g transform="matrix(24,0,0,24,281.865,141.689)">
                <path d="M0.116,-0C0.109,-0 0.104,-0.002 0.1,-0.006C0.096,-0.01 0.094,-0.015 0.094,-0.022L0.094,-0.677C0.094,-0.684 0.096,-0.69 0.1,-0.694C0.104,-0.698 0.109,-0.7 0.116,-0.7L0.137,-0.7C0.144,-0.7 0.149,-0.698 0.152,-0.695C0.155,-0.692 0.157,-0.689 0.158,-0.688L0.527,-0.124L0.527,-0.677C0.527,-0.684 0.529,-0.69 0.533,-0.694C0.537,-0.698 0.542,-0.7 0.549,-0.7L0.567,-0.7C0.574,-0.7 0.58,-0.698 0.584,-0.694C0.588,-0.69 0.59,-0.684 0.59,-0.677L0.59,-0.023C0.59,-0.016 0.588,-0.011 0.584,-0.007C0.58,-0.002 0.575,-0 0.568,-0L0.546,-0C0.539,-0 0.535,-0.002 0.532,-0.005C0.529,-0.008 0.526,-0.011 0.525,-0.012L0.157,-0.574L0.157,-0.022C0.157,-0.015 0.155,-0.01 0.151,-0.006C0.147,-0.002 0.141,-0 0.134,-0L0.116,-0Z" style="fill-rule:nonzero;"/>
            </g>
            <g transform="matrix(24,0,0,24,298.281,141.689)">
                <path d="M0.331,0.01C0.276,0.01 0.229,0 0.19,-0.02C0.151,-0.039 0.122,-0.07 0.101,-0.111C0.08,-0.152 0.069,-0.203 0.067,-0.266C0.066,-0.296 0.066,-0.324 0.066,-0.35C0.066,-0.376 0.066,-0.404 0.067,-0.434C0.069,-0.496 0.081,-0.548 0.103,-0.589C0.125,-0.63 0.156,-0.66 0.195,-0.68C0.234,-0.7 0.279,-0.71 0.331,-0.71C0.383,-0.71 0.429,-0.7 0.468,-0.68C0.507,-0.66 0.537,-0.63 0.56,-0.589C0.582,-0.548 0.594,-0.496 0.595,-0.434C0.596,-0.404 0.597,-0.376 0.597,-0.35C0.597,-0.324 0.596,-0.296 0.595,-0.266C0.594,-0.203 0.583,-0.152 0.562,-0.111C0.541,-0.07 0.511,-0.039 0.472,-0.02C0.433,0 0.386,0.01 0.331,0.01ZM0.331,-0.05C0.388,-0.05 0.436,-0.067 0.473,-0.102C0.51,-0.137 0.529,-0.193 0.532,-0.271C0.533,-0.301 0.534,-0.327 0.534,-0.35C0.534,-0.373 0.533,-0.399 0.532,-0.429C0.531,-0.481 0.521,-0.523 0.504,-0.556C0.486,-0.589 0.462,-0.612 0.433,-0.628C0.403,-0.643 0.369,-0.65 0.331,-0.65C0.294,-0.65 0.26,-0.643 0.231,-0.628C0.201,-0.612 0.177,-0.589 0.16,-0.556C0.142,-0.523 0.132,-0.481 0.13,-0.429C0.129,-0.399 0.129,-0.373 0.129,-0.35C0.129,-0.327 0.129,-0.301 0.13,-0.271C0.133,-0.193 0.153,-0.137 0.19,-0.102C0.227,-0.067 0.274,-0.05 0.331,-0.05Z" style="fill-rule:nonzero;"/>
            </g>
            <g transform="matrix(24,0,0,24,314.169,141.689)">
                <path d="M0.116,-0C0.109,-0 0.104,-0.002 0.1,-0.006C0.096,-0.01 0.094,-0.015 0.094,-0.022L0.094,-0.678C0.094,-0.685 0.096,-0.69 0.1,-0.694C0.104,-0.698 0.109,-0.7 0.116,-0.7L0.135,-0.7C0.142,-0.7 0.147,-0.698 0.151,-0.694C0.155,-0.69 0.157,-0.685 0.157,-0.678L0.157,-0.06L0.502,-0.06C0.509,-0.06 0.515,-0.058 0.519,-0.054C0.523,-0.05 0.525,-0.044 0.525,-0.037L0.525,-0.022C0.525,-0.015 0.523,-0.01 0.519,-0.006C0.515,-0.002 0.509,-0 0.502,-0L0.116,-0Z" style="fill-rule:nonzero;"/>
            </g>
            <g transform="matrix(24,0,0,24,327.057,141.689)">
                <path d="M0.331,0.01C0.276,0.01 0.229,0 0.19,-0.02C0.151,-0.039 0.122,-0.07 0.101,-0.111C0.08,-0.152 0.069,-0.203 0.067,-0.266C0.066,-0.296 0.066,-0.324 0.066,-0.35C0.066,-0.376 0.066,-0.404 0.067,-0.434C0.069,-0.496 0.081,-0.548 0.103,-0.589C0.125,-0.63 0.156,-0.66 0.195,-0.68C0.234,-0.7 0.279,-0.71 0.331,-0.71C0.383,-0.71 0.429,-0.7 0.468,-0.68C0.507,-0.66 0.537,-0.63 0.56,-0.589C0.582,-0.548 0.594,-0.496 0.595,-0.434C0.596,-0.404 0.597,-0.376 0.597,-0.35C0.597,-0.324 0.596,-0.296 0.595,-0.266C0.594,-0.203 0.583,-0.152 0.562,-0.111C0.541,-0.07 0.511,-0.039 0.472,-0.02C0.433,0 0.386,0.01 0.331,0.01ZM0.331,-0.05C0.388,-0.05 0.436,-0.067 0.473,-0.102C0.51,-0.137 0.529,-0.193 0.532,-0.271C0.533,-0.301 0.534,-0.327 0.534,-0.35C0.534,-0.373 0.533,-0.399 0.532,-0.429C0.531,-0.481 0.521,-0.523 0.504,-0.556C0.486,-0.589 0.462,-0.612 0.433,-0.628C0.403,-0.643 0.369,-0.65 0.331,-0.65C0.294,-0.65 0.26,-0.643 0.231,-0.628C0.201,-0.612 0.177,-0.589 0.16,-0.556C0.142,-0.523 0.132,-0.481 0.13,-0.429C0.129,-0.399 0.129,-0.373 0.129,-0.35C0.129,-0.327 0.129,-0.301 0.13,-0.271C0.133,-0.193 0.153,-0.137 0.19,-0.102C0.227,-0.067 0.274,-0.05 0.331,-0.05Z" style="fill-rule:nonzero;"/>
            </g>
            <g transform="matrix(24,0,0,24,342.945,141.689)">
                <path d="M0.334,0.01C0.277,0.01 0.229,-0.001 0.19,-0.024C0.151,-0.046 0.121,-0.077 0.101,-0.117C0.08,-0.157 0.069,-0.203 0.067,-0.255C0.066,-0.285 0.066,-0.317 0.066,-0.35C0.066,-0.383 0.066,-0.415 0.067,-0.445C0.069,-0.498 0.08,-0.544 0.101,-0.584C0.121,-0.623 0.151,-0.654 0.19,-0.677C0.229,-0.699 0.277,-0.71 0.334,-0.71C0.38,-0.71 0.419,-0.703 0.452,-0.69C0.485,-0.676 0.511,-0.659 0.532,-0.639C0.553,-0.618 0.568,-0.598 0.578,-0.577C0.588,-0.556 0.593,-0.539 0.594,-0.525C0.595,-0.519 0.593,-0.514 0.589,-0.511C0.585,-0.507 0.58,-0.505 0.573,-0.505L0.551,-0.505C0.545,-0.505 0.541,-0.507 0.538,-0.51C0.535,-0.513 0.533,-0.518 0.53,-0.525C0.523,-0.546 0.512,-0.566 0.497,-0.585C0.481,-0.604 0.46,-0.619 0.434,-0.632C0.407,-0.644 0.374,-0.65 0.334,-0.65C0.275,-0.65 0.227,-0.634 0.19,-0.602C0.153,-0.569 0.133,-0.515 0.13,-0.44C0.128,-0.38 0.128,-0.32 0.13,-0.26C0.133,-0.185 0.153,-0.132 0.19,-0.099C0.227,-0.066 0.275,-0.05 0.334,-0.05C0.373,-0.05 0.409,-0.057 0.44,-0.073C0.471,-0.088 0.496,-0.111 0.514,-0.142C0.532,-0.173 0.541,-0.212 0.541,-0.26L0.541,-0.311L0.367,-0.311C0.36,-0.311 0.355,-0.313 0.351,-0.318C0.347,-0.322 0.345,-0.327 0.345,-0.334L0.345,-0.348C0.345,-0.355 0.347,-0.361 0.351,-0.365C0.355,-0.369 0.36,-0.371 0.367,-0.371L0.581,-0.371C0.588,-0.371 0.594,-0.369 0.598,-0.365C0.602,-0.361 0.604,-0.355 0.604,-0.348L0.604,-0.26C0.604,-0.207 0.594,-0.16 0.573,-0.119C0.552,-0.078 0.521,-0.047 0.481,-0.024C0.44,-0.001 0.391,0.01 0.334,0.01Z" style="fill-rule:nonzero;"/>
            </g>
            <g transform="matrix(24,0,0,24,358.881,141.689)">
                <path d="M0.116,-0C0.109,-0 0.104,-0.002 0.1,-0.006C0.096,-0.01 0.094,-0.015 0.094,-0.022L0.094,-0.678C0.094,-0.685 0.096,-0.69 0.1,-0.694C0.104,-0.698 0.109,-0.7 0.116,-0.7L0.135,-0.7C0.142,-0.7 0.147,-0.698 0.151,-0.694C0.155,-0.69 0.157,-0.685 0.157,-0.678L0.157,-0.022C0.157,-0.015 0.155,-0.01 0.151,-0.006C0.147,-0.002 0.142,-0 0.135,-0L0.116,-0Z" style="fill-rule:nonzero;"/>
            </g>
            <g transform="matrix(24,0,0,24,364.905,141.689)">
                <path d="M0.116,-0C0.109,-0 0.104,-0.002 0.1,-0.006C0.096,-0.01 0.094,-0.015 0.094,-0.022L0.094,-0.677C0.094,-0.684 0.096,-0.69 0.1,-0.694C0.104,-0.698 0.109,-0.7 0.116,-0.7L0.506,-0.7C0.513,-0.7 0.519,-0.698 0.523,-0.694C0.527,-0.69 0.529,-0.684 0.529,-0.677L0.529,-0.662C0.529,-0.655 0.527,-0.65 0.523,-0.646C0.519,-0.642 0.513,-0.64 0.506,-0.64L0.157,-0.64L0.157,-0.385L0.484,-0.385C0.491,-0.385 0.497,-0.383 0.501,-0.379C0.505,-0.375 0.507,-0.369 0.507,-0.362L0.507,-0.347C0.507,-0.34 0.505,-0.335 0.501,-0.331C0.497,-0.327 0.491,-0.325 0.484,-0.325L0.157,-0.325L0.157,-0.06L0.514,-0.06C0.521,-0.06 0.527,-0.058 0.531,-0.054C0.535,-0.05 0.537,-0.044 0.537,-0.037L0.537,-0.022C0.537,-0.015 0.535,-0.01 0.531,-0.006C0.527,-0.002 0.521,-0 0.514,-0L0.116,-0Z" style="fill-rule:nonzero;"/>
            </g>
            <g transform="matrix(24,0,0,24,379.113,141.689)">
                <path d="M0.116,-0C0.109,-0 0.104,-0.002 0.1,-0.006C0.096,-0.01 0.094,-0.015 0.094,-0.022L0.094,-0.677C0.094,-0.684 0.096,-0.69 0.1,-0.694C0.104,-0.698 0.109,-0.7 0.116,-0.7L0.137,-0.7C0.144,-0.7 0.149,-0.698 0.152,-0.695C0.155,-0.692 0.157,-0.689 0.158,-0.688L0.527,-0.124L0.527,-0.677C0.527,-0.684 0.529,-0.69 0.533,-0.694C0.537,-0.698 0.542,-0.7 0.549,-0.7L0.567,-0.7C0.574,-0.7 0.58,-0.698 0.584,-0.694C0.588,-0.69 0.59,-0.684 0.59,-0.677L0.59,-0.023C0.59,-0.016 0.588,-0.011 0.584,-0.007C0.58,-0.002 0.575,-0 0.568,-0L0.546,-0C0.539,-0 0.535,-0.002 0.532,-0.005C0.529,-0.008 0.526,-0.011 0.525,-0.012L0.157,-0.574L0.157,-0.022C0.157,-0.015 0.155,-0.01 0.151,-0.006C0.147,-0.002 0.141,-0 0.134,-0L0.116,-0Z" style="fill-rule:nonzero;"/>
            </g>
        </g>
    </g>
</svg>
