<?xml version="1.0" encoding="UTF-8" standalone="no"?>
<!DOCTYPE svg PUBLIC "-//W3C//DTD SVG 1.1//EN" "http://www.w3.org/Graphics/SVG/1.1/DTD/svg11.dtd">
<svg width="100%" height="100%" viewBox="0 0 512 512" version="1.1" xmlns="http://www.w3.org/2000/svg" xmlns:xlink="http://www.w3.org/1999/xlink" xml:space="preserve" xmlns:serif="http://www.serif.com/" style="fill-rule:evenodd;clip-rule:evenodd;stroke-linejoin:round;stroke-miterlimit:2;">
    <g transform="matrix(0.59686,0,0,0.59686,-66.3045,-66.3045)">
        <g transform="matrix(1.19194,0,0,1.19194,-6104.37,143.407)">
            <path d="M5284.35,299.212L5461.5,292.848L5755.14,240.156L5858.21,143.787L5848.43,205.179L5779.48,303.259L5618.89,401.207L5326.55,472.535L5282.91,477.29L5284.35,299.212Z" style="fill:rgb(255,178,144);"/>
        </g>
        <g transform="matrix(1.19194,0,0,1.19194,-6104.37,143.407)">
            <path d="M5832.54,404.736L5681.11,574.928L5447.65,630.894L5300.85,595.382L5282.91,494.572L5404.07,461.606L5645.37,387.494L5812.71,265.924L5858.21,189.848L5832.54,404.736Z" style="fill:rgb(255,101,33);"/>
        </g>
        <g transform="matrix(0.559637,0,0,0.559637,-3437.96,-120.988)">
            <path d="M6399.45,708.661C6399.45,578.288 6505.29,472.441 6635.67,472.441L7816.77,472.441L7816.77,1653.54C7816.77,1783.92 7710.92,1889.76 7580.55,1889.76L6635.67,1889.76C6505.29,1889.76 6399.45,1783.92 6399.45,1653.54L6399.45,708.661ZM7675.04,673.228L7675.04,614.173L6635.67,614.173C6583.52,614.173 6541.18,656.512 6541.18,708.661L6541.18,1062.99C6541.18,1062.99 7671.99,1140.13 7675.04,688.703L7675.04,685.039C7675.01,681.05 7674.99,677.113 7674.96,673.228L7675.04,673.228ZM6541.18,1545.82L6541.18,1582.68C6541.18,1673.94 6615.27,1748.03 6706.53,1748.03L6872.13,1748.03C7302.51,1748.03 7654.28,1408.78 7674.37,983.338C7425.36,1482.04 6541.18,1545.82 6541.18,1545.82ZM6541.18,1157.48L6541.18,1417.32C6541.18,1417.32 7505.9,1369.45 7675.04,858.169L7675.04,851.324C7510.43,1163.6 6541.18,1157.48 6541.18,1157.48Z" style="fill:rgb(16,16,16);"/>
        </g>
    </g>
</svg>
