<?xml version="1.0" encoding="UTF-8" standalone="no"?>
<!DOCTYPE svg PUBLIC "-//W3C//DTD SVG 1.1//EN" "http://www.w3.org/Graphics/SVG/1.1/DTD/svg11.dtd">
<svg width="100%" height="100%" viewBox="0 0 2001 278" version="1.1" xmlns="http://www.w3.org/2000/svg" xmlns:xlink="http://www.w3.org/1999/xlink" xml:space="preserve" xmlns:serif="http://www.serif.com/" style="fill-rule:evenodd;clip-rule:evenodd;stroke-linejoin:round;stroke-miterlimit:2;">
    <g transform="matrix(1,0,0,1,-2167,-3532)">
        <g transform="matrix(2.60417,0,0,0.270811,2167.9,3532.68)">
            <rect id="mpowr-logo-links-klein-schwarz" x="0" y="0" width="768" height="1024" style="fill:none;"/>
            <clipPath id="_clip1">
                <rect id="mpowr-logo-links-klein-schwarz1" serif:id="mpowr-logo-links-klein-schwarz" x="0" y="0" width="768" height="1024"/>
            </clipPath>
            <g clip-path="url(#_clip1)">
                <g transform="matrix(0.430513,0,0,4.13988,-142.374,-6824.12)">
                    <g transform="matrix(0.166667,0,0,0.166667,-735.866,1572.88)">
                        <path d="M6399.45,708.661C6399.45,578.288 6505.29,472.441 6635.67,472.441L7816.77,472.441L7816.77,1653.54C7816.77,1783.92 7710.92,1889.76 7580.55,1889.76L6635.67,1889.76C6505.29,1889.76 6399.45,1783.92 6399.45,1653.54L6399.45,708.661ZM7675.04,673.228L7675.04,614.173L6635.67,614.173C6583.52,614.173 6541.18,656.512 6541.18,708.661L6541.18,1062.99C6541.18,1062.99 7671.99,1140.13 7675.04,688.703L7675.04,685.039C7675.01,681.05 7674.99,677.113 7674.96,673.228L7675.04,673.228ZM6541.18,1545.82L6541.18,1582.68C6541.18,1673.94 6615.27,1748.03 6706.53,1748.03L6872.13,1748.03C7302.51,1748.03 7654.28,1408.78 7674.37,983.338C7425.36,1482.04 6541.18,1545.82 6541.18,1545.82ZM6541.18,1157.48L6541.18,1417.32C6541.18,1417.32 7505.9,1369.45 7675.04,858.169L7675.04,851.324C7510.43,1163.6 6541.18,1157.48 6541.18,1157.48Z" style="fill:rgb(16,16,16);"/>
                    </g>
                    <g transform="matrix(2.02045,4.94867e-16,-4.94867e-16,2.02045,-11835.4,-303.978)">
                        <path d="M6177.6,1084.64C6176.44,1084.64 6175.47,1084.26 6174.68,1083.5C6173.89,1082.74 6173.5,1081.79 6173.5,1080.63L6173.5,972.073C6173.5,970.851 6173.89,969.861 6174.68,969.105C6175.47,968.348 6176.44,967.969 6177.6,967.969L6190.77,967.969C6192.34,967.969 6193.51,968.382 6194.29,969.209C6195.07,970.035 6195.56,970.66 6195.76,971.084L6228.04,1031.07L6260.42,971.084C6260.69,970.66 6261.2,970.035 6261.95,969.209C6262.7,968.382 6263.85,967.969 6265.41,967.969L6278.49,967.969C6279.71,967.969 6280.7,968.348 6281.45,969.105C6282.21,969.861 6282.59,970.851 6282.59,972.073L6282.59,1080.63C6282.59,1081.79 6282.21,1082.74 6281.45,1083.5C6280.7,1084.26 6279.71,1084.64 6278.49,1084.64L6264.45,1084.64C6263.29,1084.64 6262.34,1084.26 6261.58,1083.5C6260.82,1082.74 6260.44,1081.79 6260.44,1080.63L6260.44,1008.44L6237.07,1052.96C6236.59,1053.99 6235.9,1054.85 6235.02,1055.57C6234.14,1056.28 6232.97,1056.64 6231.5,1056.64L6224.59,1056.64C6223.12,1056.64 6221.96,1056.28 6221.11,1055.57C6220.27,1054.85 6219.57,1053.99 6219.01,1052.96L6195.64,1008.44L6195.64,1080.63C6195.64,1081.79 6195.26,1082.74 6194.51,1083.5C6193.75,1084.26 6192.79,1084.64 6191.64,1084.64L6177.6,1084.64Z" style="fill:rgb(16,16,16);"/>
                        <path d="M6307.5,1084.64C6306.35,1084.64 6305.39,1084.26 6304.63,1083.5C6303.88,1082.74 6303.5,1081.79 6303.5,1080.63L6303.5,972.073C6303.5,970.851 6303.88,969.861 6304.63,969.105C6305.39,968.348 6306.35,967.969 6307.5,967.969L6352.06,967.969C6360.79,967.969 6368.38,969.342 6374.82,972.089C6381.26,974.835 6386.27,978.956 6389.85,984.451C6393.42,989.946 6395.2,996.809 6395.2,1005.04C6395.2,1013.27 6393.42,1020.09 6389.85,1025.5C6386.27,1030.9 6381.26,1034.93 6374.82,1037.59C6368.38,1040.25 6360.79,1041.57 6352.06,1041.57L6327.34,1041.57L6327.34,1080.63C6327.34,1081.79 6326.96,1082.74 6326.2,1083.5C6325.44,1084.26 6324.45,1084.64 6323.23,1084.64L6307.5,1084.64ZM6327,1023.11L6351.23,1023.11C6357.69,1023.11 6362.66,1021.57 6366.15,1018.5C6369.63,1015.43 6371.37,1010.9 6371.37,1004.91C6371.37,999.365 6369.75,994.912 6366.52,991.547C6363.28,988.183 6358.19,986.5 6351.23,986.5L6327,986.5L6327,1023.11Z" style="fill:rgb(16,16,16);"/>
                        <path d="M6453.01,1086.3C6443.11,1086.3 6434.59,1084.65 6427.45,1081.35C6420.3,1078.05 6414.75,1073.01 6410.79,1066.22C6406.82,1059.43 6404.65,1050.93 6404.27,1040.71C6404.16,1035.89 6404.11,1031.15 6404.11,1026.51C6404.11,1021.86 6404.16,1017.08 6404.27,1012.17C6404.65,1002.06 6406.88,993.6 6410.95,986.789C6415.02,979.979 6420.66,974.861 6427.86,971.438C6435.06,968.014 6443.44,966.302 6453.01,966.302C6462.58,966.302 6470.97,968.014 6478.17,971.438C6485.37,974.861 6491.03,979.979 6495.16,986.789C6499.29,993.6 6501.49,1002.06 6501.75,1012.17C6501.97,1017.08 6502.09,1021.86 6502.09,1026.51C6502.09,1031.15 6501.97,1035.89 6501.75,1040.71C6501.44,1050.93 6499.28,1059.43 6495.29,1066.22C6491.29,1073.01 6485.72,1078.05 6478.58,1081.35C6471.43,1084.65 6462.91,1086.3 6453.01,1086.3ZM6453.01,1067.16C6460.18,1067.16 6466.04,1065.01 6470.6,1060.7C6475.17,1056.38 6477.6,1049.42 6477.91,1039.81C6478.14,1034.9 6478.25,1030.37 6478.25,1026.24C6478.25,1022.1 6478.14,1017.62 6477.91,1012.8C6477.74,1006.39 6476.56,1001.16 6474.38,997.115C6472.2,993.07 6469.29,990.113 6465.63,988.245C6461.97,986.377 6457.77,985.443 6453.01,985.443C6448.37,985.443 6444.21,986.377 6440.53,988.245C6436.85,990.113 6433.92,993.07 6431.74,997.115C6429.56,1001.16 6428.35,1006.39 6428.11,1012.8C6428,1017.62 6427.94,1022.1 6427.94,1026.24C6427.94,1030.37 6428,1034.9 6428.11,1039.81C6428.47,1049.42 6430.93,1056.38 6435.51,1060.7C6440.08,1065.01 6445.91,1067.16 6453.01,1067.16Z" style="fill:rgb(16,16,16);"/>
                        <path d="M6539.55,1084.64C6537.85,1084.64 6536.52,1084.17 6535.55,1083.25C6534.58,1082.32 6533.95,1081.13 6533.66,1079.69L6513.88,972.828C6513.81,972.519 6513.76,972.238 6513.73,971.985C6513.7,971.731 6513.68,971.549 6513.68,971.438C6513.68,970.504 6514.02,969.692 6514.71,969.003C6515.4,968.314 6516.21,967.969 6517.15,967.969L6531.82,967.969C6534.56,967.969 6536.1,969.073 6536.43,971.282L6550.31,1046.78L6565.36,998.042C6565.65,997.132 6566.2,996.198 6567.01,995.24C6567.82,994.282 6569.06,993.802 6570.73,993.802L6579.81,993.802C6581.55,993.802 6582.81,994.282 6583.59,995.24C6584.36,996.198 6584.9,997.132 6585.18,998.042L6600.23,1046.71L6614.11,971.282C6614.44,969.073 6615.98,967.969 6618.73,967.969L6633.4,967.969C6634.33,967.969 6635.14,968.314 6635.83,969.003C6636.52,969.692 6636.87,970.504 6636.87,971.438C6636.87,971.549 6636.85,971.731 6636.82,971.985C6636.78,972.238 6636.74,972.519 6636.67,972.828L6616.88,1079.69C6616.64,1081.13 6616.02,1082.32 6615.03,1083.25C6614.03,1084.17 6612.69,1084.64 6611,1084.64L6599.83,1084.64C6598.14,1084.64 6596.83,1084.2 6595.9,1083.33C6594.98,1082.46 6594.34,1081.5 6593.99,1080.43L6575.27,1024.79L6556.56,1080.43C6556.2,1081.5 6555.57,1082.46 6554.64,1083.33C6553.72,1084.2 6552.41,1084.64 6550.72,1084.64L6539.55,1084.64Z" style="fill:rgb(16,16,16);"/>
                        <path d="M6659,1084.64C6657.85,1084.64 6656.89,1084.26 6656.13,1083.5C6655.38,1082.74 6655,1081.79 6655,1080.63L6655,972.073C6655,970.851 6655.38,969.861 6656.13,969.105C6656.89,968.348 6657.85,967.969 6659,967.969L6702.1,967.969C6715.53,967.969 6726.13,971.085 6733.91,977.318C6741.69,983.551 6745.58,992.582 6745.58,1004.41C6745.58,1012.71 6743.57,1019.57 6739.56,1024.97C6735.54,1030.37 6730.13,1034.31 6723.32,1036.78L6747.59,1079.33C6747.92,1080 6748.09,1080.61 6748.09,1081.17C6748.09,1082.1 6747.74,1082.91 6747.05,1083.6C6746.36,1084.29 6745.55,1084.64 6744.62,1084.64L6729.55,1084.64C6727.59,1084.64 6726.12,1084.13 6725.14,1083.12C6724.16,1082.11 6723.41,1081.11 6722.88,1080.14L6701.32,1040.58L6678.16,1040.58L6678.16,1080.63C6678.16,1081.79 6677.78,1082.74 6677.02,1083.5C6676.27,1084.26 6675.28,1084.64 6674.05,1084.64L6659,1084.64ZM6678.16,1021.78L6701.61,1021.78C6708.38,1021.78 6713.43,1020.26 6716.76,1017.22C6720.08,1014.18 6721.74,1009.86 6721.74,1004.28C6721.74,998.69 6720.1,994.33 6716.82,991.198C6713.55,988.066 6708.47,986.5 6701.61,986.5L6678.16,986.5L6678.16,1021.78Z" style="fill:rgb(16,16,16);"/>
                        <path d="M6785.24,1084.64C6784.11,1084.64 6783.19,1084.28 6782.48,1083.57C6781.77,1082.87 6781.42,1081.94 6781.42,1080.81L6781.42,971.792C6781.42,970.66 6781.77,969.74 6782.48,969.032C6783.19,968.323 6784.11,967.969 6785.24,967.969L6794.19,967.969C6795.32,967.969 6796.24,968.323 6796.95,969.032C6797.66,969.74 6798.01,970.66 6798.01,971.792L6798.01,1080.81C6798.01,1081.94 6797.66,1082.87 6796.95,1083.57C6796.24,1084.28 6795.32,1084.64 6794.19,1084.64L6785.24,1084.64Z" style="fill:rgb(16,16,16);"/>
                        <path d="M6855.97,1084.64C6854.84,1084.64 6853.92,1084.28 6853.21,1083.57C6852.5,1082.87 6852.15,1081.94 6852.15,1080.81L6852.15,982.81L6820.15,982.81C6819.02,982.81 6818.1,982.456 6817.39,981.748C6816.68,981.039 6816.32,980.119 6816.32,978.987L6816.32,971.927C6816.32,970.705 6816.68,969.74 6817.39,969.032C6818.1,968.323 6819.02,967.969 6820.15,967.969L6900.48,967.969C6901.7,967.969 6902.67,968.323 6903.38,969.032C6904.09,969.74 6904.44,970.705 6904.44,971.927L6904.44,978.987C6904.44,980.119 6904.09,981.039 6903.38,981.748C6902.67,982.456 6901.7,982.81 6900.48,982.81L6868.61,982.81L6868.61,1080.81C6868.61,1081.94 6868.26,1082.87 6867.55,1083.57C6866.84,1084.28 6865.88,1084.64 6864.66,1084.64L6855.97,1084.64Z" style="fill:rgb(16,16,16);"/>
                    </g>
                </g>
            </g>
        </g>
    </g>
</svg>
